<?xml version="1.0" standalone="no"?>
<!DOCTYPE svg PUBLIC "-//W3C//DTD SVG 20010904//EN"
 "http://www.w3.org/TR/2001/REC-SVG-20010904/DTD/svg10.dtd">
<svg version="1.0" xmlns="http://www.w3.org/2000/svg"
 width="400.000000pt" height="400.000000pt" viewBox="0 0 400.000000 400.000000"
 preserveAspectRatio="xMidYMid meet">
<metadata>
Created by potrace 1.11, written by Peter Selinger 2001-2013
</metadata>
<g transform="translate(0.000000,400.000000) scale(0.100000,-0.100000)"
fill="#000000" stroke="none">
<path d="M2000 3500 l0 -500 500 0 500 0 0 -500 0 -500 500 0 500 0 0 1000 0
1000 -1000 0 -1000 0 0 -500z"/>
<path d="M0 2000 l0 -1000 450 0 450 0 0 -500 0 -500 1000 0 1000 0 0 500 0
500 -500 0 -500 0 0 500 0 500 -500 0 -500 0 0 500 0 500 -450 0 -450 0 0
-1000z"/>
</g>
</svg>
